<svg width="10" height="11" viewBox="0 0 10 11" fill="none" xmlns="http://www.w3.org/2000/svg">
<path d="M0.641704 6.13843L7.81006 6.13843L4.67832 9.27018C4.42803 9.52046 4.42803 9.93118 4.67832 10.1815C4.73769 10.241 4.80821 10.2882 4.88584 10.3204C4.96348 10.3526 5.0467 10.3691 5.13075 10.3691C5.2148 10.3691 5.29802 10.3526 5.37566 10.3204C5.45329 10.2882 5.52381 10.241 5.58319 10.1815L9.81232 5.95233C9.87182 5.89296 9.91902 5.82243 9.95122 5.7448C9.98342 5.66716 10 5.58394 10 5.49989C10 5.41584 9.98342 5.33262 9.95122 5.25498C9.91902 5.17735 9.87182 5.10683 9.81232 5.04746L5.58319 0.818319C5.52377 0.758904 5.45324 0.711775 5.37561 0.67962C5.29798 0.647466 5.21478 0.630916 5.13075 0.630916C5.04673 0.630916 4.96352 0.647466 4.8859 0.67962C4.80827 0.711775 4.73773 0.758904 4.67832 0.818319C4.6189 0.877733 4.57177 0.94827 4.53962 1.0259C4.50746 1.10353 4.49091 1.18673 4.49091 1.27075C4.49091 1.35478 4.50746 1.43798 4.53962 1.51561C4.57177 1.59324 4.6189 1.66377 4.67832 1.72319L7.81006 4.85493L0.641704 4.85493C0.288741 4.85493 -4.673e-05 5.14372 -4.673e-05 5.49668C-4.673e-05 5.84965 0.288741 6.13843 0.641704 6.13843Z" fill="black"/>
</svg>
