<svg width="13" height="13" viewBox="0 0 13 13" fill="none" xmlns="http://www.w3.org/2000/svg">
<g clip-path="url(#clip0_107_405)">
<path d="M10.0771 9.5C10.2046 9.50014 10.3272 9.54894 10.4198 9.63642C10.5125 9.72391 10.5683 9.84348 10.5757 9.9707C10.5832 10.0979 10.5418 10.2232 10.46 10.3209C10.3782 10.4186 10.2622 10.4814 10.1356 10.4965L10.0771 10.5H2.07715C1.94971 10.4999 1.82713 10.4511 1.73446 10.3636C1.6418 10.2761 1.58603 10.1565 1.57856 10.0293C1.57109 9.90208 1.61249 9.77681 1.69428 9.67908C1.77608 9.58136 1.8921 9.51855 2.01865 9.5035L2.07715 9.5H10.0771ZM10.0771 6C10.2098 6 10.3369 6.05268 10.4307 6.14645C10.5245 6.24021 10.5771 6.36739 10.5771 6.5C10.5771 6.63261 10.5245 6.75978 10.4307 6.85355C10.3369 6.94732 10.2098 7 10.0771 7H2.07715C1.94454 7 1.81736 6.94732 1.7236 6.85355C1.62983 6.75978 1.57715 6.63261 1.57715 6.5C1.57715 6.36739 1.62983 6.24021 1.7236 6.14645C1.81736 6.05268 1.94454 6 2.07715 6H10.0771ZM10.0771 2.5C10.2098 2.5 10.3369 2.55268 10.4307 2.64645C10.5245 2.74021 10.5771 2.86739 10.5771 3C10.5771 3.13261 10.5245 3.25979 10.4307 3.35355C10.3369 3.44732 10.2098 3.5 10.0771 3.5H2.07715C1.94454 3.5 1.81736 3.44732 1.7236 3.35355C1.62983 3.25979 1.57715 3.13261 1.57715 3C1.57715 2.86739 1.62983 2.74021 1.7236 2.64645C1.81736 2.55268 1.94454 2.5 2.07715 2.5H10.0771Z" fill="#444444"/>
</g>
<defs>
<clipPath id="clip0_107_405">
<rect width="12" height="12" fill="white" transform="translate(0.0771484 0.5)"/>
</clipPath>
</defs>
</svg>
