<svg width="18" height="18" viewBox="0 0 18 18" fill="none" xmlns="http://www.w3.org/2000/svg">
<path d="M14.5501 7.03127L14.0341 6.51527L14.3941 6.13577C14.4906 6.03927 14.5388 5.93102 14.5388 5.81102C14.5388 5.69102 14.4906 5.58277 14.3941 5.48627L12.5138 3.60602C12.4173 3.50952 12.3091 3.46127 12.1891 3.46127C12.0691 3.46127 11.9608 3.50952 11.8643 3.60602L11.4848 3.96602L10.9501 3.43127L11.3686 2.99402C11.5886 2.77402 11.8583 2.66702 12.1778 2.67302C12.4968 2.67952 12.7663 2.79277 12.9863 3.01277L14.9873 5.01377C15.2073 5.23377 15.3173 5.50027 15.3173 5.81327C15.3173 6.12627 15.2073 6.39277 14.9873 6.61277L14.5501 7.03127ZM6.63157 14.9685C6.41157 15.1885 6.14507 15.2985 5.83207 15.2985C5.51907 15.2985 5.25257 15.1885 5.03257 14.9685L3.09007 13.026C2.86007 12.796 2.74507 12.51 2.74507 12.168C2.74507 11.826 2.86007 11.5403 3.09007 11.3108L3.45007 10.95L3.98482 11.4848L3.62032 11.8455C3.52432 11.942 3.47632 12.0503 3.47632 12.1703C3.47632 12.2903 3.52432 12.3985 3.62032 12.495L5.50507 14.3798C5.60157 14.4758 5.70982 14.5238 5.82982 14.5238C5.94982 14.5238 6.05807 14.4758 6.15457 14.3798L6.51457 14.0153L7.05007 14.55L6.63157 14.9685ZM13.9313 9.86552L14.7841 9.01277C14.8801 8.91677 14.9281 8.80627 14.9281 8.68127C14.9281 8.55627 14.8801 8.44577 14.7841 8.34977L9.65032 3.21602C9.55432 3.12002 9.44382 3.07202 9.31882 3.07202C9.19382 3.07202 9.08332 3.12002 8.98732 3.21602L8.13457 4.06877C8.03857 4.16477 7.99057 4.27302 7.99057 4.39352C7.99057 4.51352 8.03857 4.62152 8.13457 4.71752L13.2826 9.86552C13.3786 9.96152 13.4866 10.0095 13.6066 10.0095C13.7266 10.0095 13.8348 9.96152 13.9313 9.86552ZM9.01282 14.784L9.86557 13.9268C9.96157 13.8308 10.0096 13.7228 10.0096 13.6028C10.0096 13.4828 9.96157 13.3745 9.86557 13.278L4.72207 8.13452C4.62607 8.03852 4.51782 7.99052 4.39732 7.99052C4.27732 7.99052 4.16932 8.03852 4.07332 8.13452L3.21607 8.98727C3.12007 9.08327 3.07207 9.19377 3.07207 9.31877C3.07207 9.44377 3.12007 9.55427 3.21607 9.65027L8.34982 14.784C8.44582 14.88 8.55632 14.928 8.68132 14.928C8.80632 14.928 8.91682 14.88 9.01282 14.784ZM8.48257 10.8285L10.8331 8.48252L9.51757 7.16702L7.17157 9.51752L8.48257 10.8285ZM9.53407 15.3143C9.30407 15.5443 9.01982 15.6593 8.68132 15.6593C8.34282 15.6593 8.05857 15.5443 7.82857 15.3143L2.68582 10.1715C2.45582 9.94152 2.34082 9.65727 2.34082 9.31877C2.34082 8.98027 2.45582 8.69602 2.68582 8.46602L3.53782 7.59977C3.76782 7.36977 4.05382 7.25477 4.39582 7.25477C4.73782 7.25477 5.02357 7.36977 5.25307 7.59977L6.63607 8.98277L8.98732 6.63152L7.60357 5.25302C7.37357 5.02302 7.25857 4.73652 7.25857 4.39352C7.25857 4.05002 7.37357 3.76352 7.60357 3.53402L8.47057 2.66702C8.70057 2.43702 8.98657 2.32202 9.32857 2.32202C9.67057 2.32202 9.95632 2.43702 10.1858 2.66702L15.3331 7.81427C15.5631 8.04427 15.6781 8.33027 15.6781 8.67227C15.6781 9.01427 15.5631 9.30002 15.3331 9.52952L14.4661 10.3965C14.2361 10.6265 13.9496 10.7415 13.6066 10.7415C13.2636 10.7415 12.9771 10.6265 12.7471 10.3965L11.3686 9.01277L9.01732 11.364L10.4003 12.747C10.6303 12.977 10.7453 13.2628 10.7453 13.6043C10.7453 13.9458 10.6303 14.2318 10.4003 14.4623L9.53407 15.3143Z" fill="#9D4EDD"/>
</svg>
